<?xml version='1.0' encoding='utf-8'?>
<svg xmlns="http://www.w3.org/2000/svg" version="1.1" id="Layer_1" x="0px" y="0px" viewBox="0 0 1000 1000" style="enable-background:new 0 0 1000 1000;"> <style type="text/css"> .st0{fill:none;} </style> <g> <g id="Layer_1-2"> <path class="st0" d="M929.7,291.8c11.1,12.1,10.4,31-1.6,42.2l-55.9,51.8L644,139.2L700,87.4c12.1-11.1,31-10.4,42.2,1.6 L929.7,291.8z"/> <path d="M681.5,140.6l36.5-33.8c1.3-1.3,3.4-1.2,4.7,0.2c0,0,0,0,0,0l187.6,202.7c1.3,1.3,1.2,3.4-0.2,4.7c0,0,0,0,0,0l-36.5,33.8 L681.5,140.6 M606.5,137.7l264.2,285.5l75.4-69.8c22.9-21.1,24.3-56.7,3.2-79.5c-0.1-0.1-0.1-0.1-0.2-0.2L761.5,70.9 c-21.1-22.9-56.8-24.2-79.7-3.1L606.5,137.7z M311.4,651.7l-1,25l25,1l25,1l363.4-336.2l-48-51.9L312.3,626.8L311.4,651.7z"/> <path d="M121.1,719.4L63.8,904.9l189.3-42.7l189.3-42.7l402.3-372.3l-48-51.9L394.4,767.6l-0.7-0.7L344,778.1l-118.6,26.8 l-0.1-1.3l-3.4-45l-44.6-6.9l-1.2-0.2l35.9-116.2l15.1-48.8l-0.7-0.7l402.3-372.3l-48-51.9L178.3,534L121.1,719.4z"/> </g> </g> </svg>