<?xml version='1.0' encoding='utf-8'?>
<svg xmlns="http://www.w3.org/2000/svg" id="svg" version="1.1" width="400" height="577.8767631774314" viewBox="0, 0, 400,577.8767631774314"><g id="svgg"><path id="path0" d="M34.651 0.446 C 31.309 1.365,27.524 4.093,25.491 7.048 C 24.027 9.175,12.553 31.260,12.168 32.693 C 11.333 35.792,12.662 39.154,16.050 42.517 C 20.255 46.689,19.325 46.386,53.613 54.772 C 69.939 58.766,104.276 67.168,129.918 73.445 C 155.561 79.721,186.028 87.178,197.625 90.015 L 218.709 95.174 115.814 95.323 L 12.918 95.471 10.697 96.282 C 4.113 98.685,0.297 103.567,0.075 109.874 C -0.021 112.598,33.117 559.376,33.719 563.474 C 34.687 570.062,39.357 575.624,45.414 577.403 C 47.658 578.062,312.459 578.131,314.922 577.473 C 320.752 575.916,325.230 570.983,326.552 564.662 C 326.797 563.490,334.024 468.297,343.131 346.297 C 352.009 227.340,359.354 129.931,359.451 129.834 C 359.548 129.737,364.736 130.919,370.979 132.460 C 382.302 135.256,382.341 135.264,386.043 135.253 C 392.559 135.235,397.515 132.935,399.391 129.058 C 400.208 127.372,400.333 100.188,399.540 96.823 C 398.279 91.472,394.497 87.137,389.439 85.245 C 388.334 84.831,285.909 59.604,270.601 55.975 C 269.972 55.826,269.933 55.665,269.928 53.224 C 269.906 42.709,265.947 32.898,259.681 27.829 C 256.356 25.139,254.136 24.296,242.762 21.401 C 208.002 12.554,194.466 9.243,192.279 9.052 C 182.068 8.162,171.522 15.247,164.754 27.543 C 164.102 28.727,163.507 29.696,163.431 29.696 C 163.355 29.696,147.766 25.896,128.788 21.251 C 32.841 -2.231,42.264 -0.003,39.006 0.027 C 37.397 0.041,35.437 0.230,34.651 0.446 M82.218 117.729 C 90.358 119.896,99.717 129.854,100.682 137.374 C 101.337 142.482,119.129 544.286,118.775 545.989 C 115.586 561.354,93.831 561.327,89.866 545.954 C 89.131 543.104,58.991 137.049,59.384 135.294 C 61.508 125.817,74.643 115.713,82.218 117.729 M186.289 120.098 C 192.954 121.789,199.348 126.451,201.056 130.864 L 201.725 132.591 198.896 339.866 C 196.090 545.472,196.062 547.157,195.446 549.072 C 190.400 564.749,168.114 562.247,166.554 545.829 C 166.343 543.608,161.051 161.061,160.908 137.708 L 160.874 132.135 161.827 130.198 C 165.538 122.661,177.280 117.813,186.289 120.098 M286.798 123.412 C 296.303 125.370,303.447 131.599,303.281 137.783 C 303.122 143.658,273.172 543.748,272.759 545.509 C 271.093 552.606,265.084 557.684,258.352 557.684 C 251.410 557.684,244.830 552.322,243.747 545.784 C 243.441 543.941,261.691 146.999,262.471 138.505 C 263.349 128.952,275.899 121.166,286.798 123.412 " stroke="none" fill="#040404" fill-rule="evenodd"/><path id="path1" d="" stroke="none" fill="#080404" fill-rule="evenodd"/><path id="path2" d="" stroke="none" fill="#080404" fill-rule="evenodd"/><path id="path3" d="" stroke="none" fill="#080404" fill-rule="evenodd"/><path id="path4" d="" stroke="none" fill="#080404" fill-rule="evenodd"/></g></svg>